/* XPM */
static char *result[] = {
/* columns rows colors chars-per-pixel */
"64 64 38 1 ",
"  c black",
". c #0F0601",
"X c #1B0B02",
"o c #230F04",
"O c #2C1203",
"+ c #3A1700",
"@ c #3D1B07",
"# c #401B07",
"$ c #441D08",
"% c #491F08",
"& c #7F0000",
"* c #4E2108",
"= c #542308",
"- c #59260A",
"; c #6B2F0C",
": c #7A360E",
"> c #1D6000",
", c #206D00",
"< c #3E7000",
"1 c #406F01",
"2 c #457501",
"3 c #487601",
"4 c #477901",
"5 c #4B7C02",
"6 c #507F05",
"7 c #4D4D4D",
"8 c red",
"9 c #2A8C00",
"0 c #4E8105",
"q c #4E8208",
"w c #518306",
"e c #528409",
"r c #808080",
"t c #B2B2B2",
"y c #CCCC84",
"u c #E5E595",
"i c LightGray",
"p c white",
/* pixels */
"555545443333454450055554530555445554554465w0050556555045<0565354",
"50555444333355240050555545005533544555346w005w55535555000<563535",
"5555504436333333qw535565ww554455www0544tww44w55534ee665605555342",
"5555654333362333ww3555505w5544ttw5ww   twe445w5534we6w5555545522",
"5633ee11334455ee43ww04345555555t7   +OO7 44333565542444355446w55",
"5533qe<2444455ee33w64454550555  7O+++++7X  55t655q44433303446555",
"33324455ww0500qq555505w6555443 OOX+++++OOOX  t3505555w443542ww55",
"33224555ww5050qq55536w00554555 ++++ttOOO++OOXt735655654435446w50",
"50240044555555552255q5455600tt77O+++t7X+++++O77  45505w555445533",
"55240w445555555522655054655w5w 7X+++++++++++++OXX t5555645445543",
"555050wq555350502266q05555ee055 XO++OO++++ttOo+Oott5554455440550",
"440505ee6555w5052255005055ee555w  O77O+++++77O++O7X 554444440000",
"054456344443443244     3550553556tt7+++++++++++++OO  53465434434",
"505455      45224  ==*  50504355w655    ++++#+OO+oXX      434354",
"55445 ,>>>,,  555 :;;;;  555550q45w055      +77O+O  ,>,,,, 22255",
"55445 >>>>,, , 5  :::;;= 555      5644 ::::;tt oO , >>>,,, 31455",
"35240 9999>,,, 5 :::::;   0  ,>>>>  5   :::;t=  X ,9999>,,    34",
"35225 99999>,, 5 ::::   y 6 9999>>, 5 y   ::** q  99999>,, OXX 2",
"54005 99999>,, q ::: uuuu   99999>,   yuuu ::* 44 99999>>, +OX w",
"55505 99999>>, q ::: pppy 9 99999>> , pppy :;* 34 99999>>, ++O w",
"q5445 99999>>, 5 ::: yp  999 9999, 99>  py :;* 34 99999>>, ++O 5",
"53545 99999>>> 5 ::    99999  99,, 999>,    ;= 64 99999>>,    5w",
"qq45w 99999>,, 1   9999988999 9>, 999889,>>,   64 99999,,, 55455",
"qq44 9999>>,,, 24 9999988&99999>,9999&88999>, 6e3 999999>,, 4405",
"4355 999,>,, , e 99999&&&&99       ,>&&&&999>, e0 999999>>, w666",
"3455 9>,, , O    9999&&999           ,99&&9>,   5 ,99>>>,,, 665q",
"3663 9,, O oOO    9999999    $$$*#    9999>,       ,>,>,  , 5500",
"6536 ,> OoOooO $   99999    --***#*    999,    OO o ,   OO  5500",
"1255  , o@@OO $$     99    ------*$$   999,   OOOO O Ooo$OO 5533",
"123 OO O@@@o@ $$$         --------*$$  99,>  $@@OO OOO$@@ooO 533",
"ww5 @Oo@@@@@ %$$$$-     -----------#$ 999,> $$$$@OO @@@@@@oO 545",
"ww5 @@@@@@@@ %$ $-------------------* >9,>> $$$$$OO @@@@@@OO 654",
"0q4 @@@@@@@@ $ , -------------------*# 9>>>> $$$$#O @@@@@@o 5655",
"0q5 @@@@@@@ ** > -------------------** ,  ,>> $$$$@O @@@ @ >5555",
"005 @@@@@@@ @ ,>,  ------------------** $$  > $$$$@O @@ >  95555",
"00q @@@$@@@  ,9,>,, -----------------=**$$$$ $$$$#@O @@ >9995555",
"540 oooOoo$>,999,, ------------------=-*=%=%*%=*%$$O #@ >,9>q033",
"405 OOOOOOo>,9999,> -------------------=========*%%O @@@ ,,>6533",
"545      OO>999999> -----------------------=-=--=**O @@@$  >5545",
"45 .....X  >999999, -----------------------------%*O @@@@oO 5554",
"55 .XXX.oXX>99999,,, ----------------------------*=O @@@OOO 5255",
"50 i7XXXXXX>99999,, -----------------------------=$O @@@OO q5255",
"wii7XXXXXXo>9999,, $-----------------------------*$O @@oOO 45655",
"ww4 XXXXXXX>9 9999,  $--------------------------=*$O @@o@ qq655q",
"5q5 XXXXXXX> - 999,,, $*------------------------=$OO @oo 5653550",
"555 XX7XXX.. - 9999,>> *%----------------------=*@O ooO 55553305",
"0055777XXXX. -- 9999,>> %----------------------=$%O O  335555644",
"0054i7XXX7.. -- 9999,,> $---------------------=*$O   64353355644",
"5q4ir4 .X77.  - 99,,>  $=--------------  -----*@$O 5444465555535",
"050544<  ir  5 - 9>> $#=-------------  >> --=*$*  55544405556635",
"45442<5555r<56 - 9, $$*------------- >>,>>  *** >>q6356w55343355",
"4445<<4445i2654 99, $$*------------**  99,,,   ,,36555w655335355",
"55425555ww245w459 9, $--------------=#* 999,>>9>05qq445544233555",
"544465550634w5454 9,, $-------------**#$ 999,,9005qq445543325565",
"2455500q4405qq552<99,> -------------***@* 9999445444450505426550",
"445505055550qq5522249> -----------==**@*@ 9995445545455w05435505",
"2244<212456q423544535, -------==-=***@*o 99e555444505544ww663533",
"12442<2234qq22354445556  $$#$$$$****OOO  wee6555440555046w665433",
"554422434244ee35556645ww5    OOOoOO    54465ew555544000qww335055",
"654422542234ee55346655ww2455q      q33454455ew55554450qqww35wq36",
"55435344440455ww4433443350444442555533445505w0224255445550444455",
"55333544544450w53433445455445444335543240000ww242255445q05424455",
"00446555422256456656054555555455653424502<3535ww443566542200<255",
"504455652224w553666505545555555555333400<<5355ww4455665422052205"
};
