/* XPM */
static char *result[] = {
/* columns rows colors chars-per-pixel */
"64 64 22 1 ",
"  c black",
". c #1C0D05",
"X c #5E2E10",
"o c #7C3E15",
"O c #385B00",
"+ c #3E7000",
"@ c #406F01",
"# c #457501",
"$ c #487601",
"% c #467901",
"& c #4B7C02",
"* c #4D7F09",
"= c #507F05",
"- c #874116",
"; c #B25415",
": c #4E8105",
"> c #4E8208",
", c #518206",
"< c #528409",
"1 c #67A800",
"2 c #808080",
"3 c gray80",
/* pixels */
"&&&&%%$%$#$$&&%#:&:,&&&$&&&&&&%%&&$&&&%%=&,::::&&&&&&&::%+=&&$&&",
"&:&&&&&%$#$$&&%#&::&&&&&&$&:&&%%&&&&&&%%&,,:&:&&&&&&:&&&%%&&$&&#",
"&&&&&,$&$=$=$$$$:<&$&&&::,&:%%%:&<:,&$$$,,%&,&&&$$<<=&=&>,&&$&##",
"&&&&&&&$$$$$#$$$,,$&&&&=,:&&%%:%>:,,%$&$,,%$&,&&%$<<*=&&:&&&&&##",
"=&%&<>@@&$%%&&<<&$=<&&&%&&&&&&%:<=@@&*&&&&$$$&*&&&%%%%&$&&%%==&&",
"&&&$<<@@$$%%&&<<$$==%%%&&$&&&&&%=<@@**&&&&$&&&&*&=%%$%$$&&%%==%&",
"$$$#%%&&,,:&&:>>&&&&>&==&&&&&&&&%#%$##:,*&&&$&$%:&&&&=%%&&#%=,&&",
"$$@$%%&&,,&&,:>>&&&&=*,&&&&&&$&&###%##::=&&&&&%&&=&&=&%%&&%%=,==",
"&:#%::%%&&&&&&&&#%&&&&&&=&>&&&%%&:%%&&&:,,&$$&,=%%&&&&&:&&%%&&%#",
"&&#%::&&&&&&&:%&%%&=&:&&=&>:&&%%::%%&&,:,,%$$&,,%%&&,&:&&%%%$&$#",
"&&&:&&<>&&                                            %$%&%&::&:",
"%%:&:&<>&: ----------X-----------------------X------- &$$&%$&&::",
":&&&&&&%&% oo;;;;;;;-X;;;;;;;;;;;;;;;;;;;;;;-X;;;;;;- %#&=$$&%$&",
"&:&%&&&%%% oo3;;;;;;-X;;;;;;;;;;;;;;;;;;;;;;-X;;;2;;- %%,&$$%$&$",
"&&%%&&%%%& o223..........;;;;;;;;;;;;;;;;;;;-X;;332;- &&%%@###&&",
"&&%%&%#%%% oo2;..........;;;;;;;;;;;;;;;;;;;-X;;;2;;- &&#%##@%&&",
"%&%%&&%#&& oo;;..........;;;;;;;;;;;;;;;;;;;-X;;;;;;- &&==&%&&##",
"&%%%&&##&& XXXX....XXXXXXXXXXXXXXXXXXXXXXXXXXXXXXXXXX $&,,%&&&##",
"%%&:&&=&&, ----....---------X-------------------X---- &%==&:&&=,",
"%&&:&&:,,& oo;;....;;;;;;;;-X;;;;;;;;;;;;;;;;;;;X;;;- %%=&&&&=,,",
"*&%%&&$&>* oo;;....;;;;;;;;-X;;;;;;;;;;;;;;;;;;;X;;;- :%*&%%&&&=",
"%&%%&&&&>& oo;;....;;;;;;;;-X;;;;;;;;;;;;;;;;;;;X;;;- &&&>%%$&,&",
">>%&==*&%& oo;;..........;;-X;;;;;;;;;;;;;;;;;;;X;;;- &&%&&&&&&&",
">>%&,=&*&& XXXX..........X..XXXXXXXX..XXXXXX..XXXXXXX ::&&%&$&&&",
"$$&&>>##%& ----..........-..------X-..------..----X-- &&*%&&:=:=",
"$$&&>>##&% oo;;....;;;;;;;;;;;;;;-X;;;;;;;;;..;;;-X;- &&&*&&&,&,",
"&&=&##:&%% oo;;....;;;;;;;..;.....X;..;;...;.....-X;- &:&&:,&&,:",
"&=$&##&&&& oo;;....;;;;;;;..;..;;..;..;..;;;..;;..X;- &&&&:&&&,&",
"@#&$%%,=$$ oo;;....;;;;;;;..;..;;..;..;...;;..;;..X;- #+&$#@&:$$",
"#@&&%%,=%& XXXX....XXXXXXX..X..XX..X..XX...X..XX..XXX #+&&@@&&$$",
"<,=&&,&&$$ --2-....---X---..-..--..-..---..-..--..--- &&$&%#&&&$",
"<,&&*&&$$% o233....;;-X;;;..;..;;..;..;...X;..;;..2;- &&&&%%=&&&",
"::$$&%&%:: oo2;;;;;;;-X;;;;;;;;;;;;;;;;;;-X;;;;;;3;;- $#===&&&&&",
":*&%$&%&:> oooooooooo-Xoooooooooooooooooo-Xooooooooo- %#==&=&=&&",
"::*#&&&&== oooooooooo-Xoooooooooooooooooo-Xooooooooo- :&&&&=&&&&",
"::&$&&&&,=                                            &&&*&&&&&&",
"&:%%%#&:&&:<%&%%&&=*&:&,&&&& ;;ooooo ===&:%%%&&&&$%&:::::>&&==%$",
"&%%:%%&&&&<<&%%%&=&*:&,&&&%& ;;ooooo &==&&&%&&&&&$&&&::::>&&&=%%",
"%&:&&&%$%%::+#&$&&==,&##==%$ ;;ooooo ,&&,,&:&&&%%%,,%%::::&:&*$$",
"&%:&&&%%%%>:##&&&*==&&##=&&$ ;;ooooo <:&::&&&&%&&%>,%&&:::>&&&$&",
"&&%&&:%&:&&&&&##&&&&&&==#%:, ;;ooooo <&=,:&%%%&%&$$&**=&::,:$$&&",
"&&&%&&%%::&&%%%%&&&&=&=&##>< ;;ooooo ,&&::&$$%&&%$&$**<*:&::%%&&",
",,&%:&&&%%&%&&&$&$##&&&&+#:& ;;ooooo &&:&%%%%#%%$&<*==**::&%=&&&",
",<%&:&&%:%%%%%$&$$##&&&&##&& ;;ooooo ::&%%::%%%%%&&*==&&::&%&=&&",
">&&&&*%%&&&&$$=,&:>&&&&%&&:: ;;ooooo &:&&%&=>:$#&:&%&&$=&&&&&&&&",
"*&&&&&##:&&&$$,,>&&&&&%&&&,: ;;ooooo %&&&&&&::$$&:%%&&$$&&=&&&&&",
"&:,&&&&&::$$,,&&<,%%&&%&&&:: ;;ooooo %&&#%%&&&#@,,,&&=$&$$&&&*&$",
"::&=&&*=::$$,,&&,,%%&&%%&&>: ;;ooooo %&,#%%&::@#,,,,==$$$&$&*&$&",
"&&&&%$++$&::&&%%&%&=<<::>:&& ;;oo:&o&&%&%&&%&%%:&%%:&$%%&&&&*&&&",
"&:%:%&++$&&&&%%%&$&&,<::&,&= ;;oo&:: &$&&&%%%&&%&:&&$$%%&:&&&&&&",
"%%%:++&&&&@#&&&&&&:,$&%%&1&1 ;;ooOOo &&&####>,&&&&:&&&,=&&$$$$$$",
"%%&%#+&&&&#@=&&&$&<>$$%&&&1%1;;o&Ooo &&&###%,,%&&&&:&&,=&&$&$#*&",
"&%%%&&&&,,#%=&&&%&::%&&&&=1:1&;1O:oo1&&O##&,#&*&&&>>%%&&&%#$&&&=",
"%&%&=&&&:=#%&,&&&%:&%%&&&:&&11:1O&&1:&O:@$:&##%*&&>>#%&&%&$#&&=&",
"%%&&&&>&&&&::>&&+###&,:&&&&OO1:OO:1:1OO&:&&:&&%%&&%%&%:,&&%#=&&&",
"%%&&&&::%&:&::&&###%,&O&&1&&OO&OOO1&:O&11OO$&&&%&&%&&%=&&&%$&=&&",
"#+%&#++#%&*:%#%&$%$$&&=&&O1:O&=O&&OO:&&%::,<,&&%%%&=&&%&,,==$$$$",
"@#&&+#@#%%>*##&%%%&&$&,&&&&&==@#&:&&,,##:&<<&&%&%&,&&&&&,,==&&$$",
"&&%%##$$%@$&<,&&&&==&&:,%#%%::$=:,&=$$$$$%=&<,&&&&%%:::>,,&$==&&",
"=&%%##$$##&$,<&&$&==&&,,%%&&::&&:,&&$$%%%&&&<,&&&&%%:&>>,<&$&&*&",
"&&&%&&%%%%&&&&,=$&%$$&#%&&%%%%%%$&&&&$%%&&,&,,####&&%%&&&&%%&%&&",
"&&%%&$%%%&%%&=&,$&##&$%%&&%%%%%$&&&&$$%#&&::,,#%##&&%&&&:&%%%&&&",
":&%%&=*&%%##&=&&==&&&&%&&&&&%&&&&&&$%%&:+#%%&&,,%%%&==&%#%::#+&&",
":&%%=&&&###%,&&$===&:&&&&&&:&&&&&&$$#%&:+#$&&&=,&%&&=*%%#%::+#&&"
};
