/* XPM */
static char *result[] = {
/* columns rows colors chars-per-pixel */
"64 64 39 1 ",
"  c black",
". c #260E00",
"X c #3A1700",
"o c gray17",
"O c #600000",
"+ c #7F0000",
"@ c #7F3300",
"# c #3E7000",
"$ c #406F01",
"% c #457501",
"& c #487601",
"* c #477901",
"= c #4B7C02",
"- c #507F05",
"; c gray31",
": c #515151",
"> c gray42",
", c #727272",
"< c #AD0000",
"1 c #B40000",
"2 c #BC0000",
"3 c #C40000",
"4 c #CE0000",
"5 c #DA0000",
"6 c #EA0000",
"7 c #4E8105",
"8 c #4E8208",
"9 c #518306",
"0 c #518409",
"q c #D8956C",
"w c #FFB27F",
"e c #808080",
"r c #8E8E8E",
"t c #AFAFAF",
"y c #BCBCBC",
"u c #FFC7A5",
"i c #FFC9A8",
"p c #CECECE",
"a c gray88",
/* pixels */
"====*=*=&&&&==&&=77====*=*=7=-&&*=====&*-=9779===-==*777#*=-&&==",
"=7==****&&&&==&&77=9====*==7==&*==*===*&-9779=7==*======**=-=&*=",
"-====9**&-&&&&&&98=&====79   *==7997&&**99**====&&00---=7=*===&%",
"&===-=*&&&&=&&&&99&===9==9=     7879*&==99**-7==&&00--=-77===&%%",
"==**00$$**%%*=00&&99==*======  a   %=-====*&=*8==7%%**=*7=**-9*=",
"==**00$%*=%%==00&&9-%==*======= ayy    -==*=&==-7=&&****==**-===",
"&&&%*&==997=7708====779==8*==&=-  ayyee   =-==**=9*===**==%%9-7=",
"&&&&**==99=77788====-==7===*====%%  ayyeee   &**7===9  &=*&&-9=9",
"==&*79**=====7==%%*=7=====87==&&77*& ayyyeeee   **== .. ****=-&%",
"77%*79**=======*%%=-=8==-=77==%&77*%=  aayyeeeee    XX. *=**==&%",
"*=7===00=7*&=9=7%%-=77====09=77=====%$*  ayyyeeeee XX. *=***7==7",
"=*=7=7007===-=7=%&--87=7==90===-==7=$%=*= aayyeeee XX. **==*7777",
"=7**==****&&*=&%**=     ==7==&==99==7=&&=   ayyee XX. &&7=&&&***",
"7=**==**    *=%%**  OOO  7=7=*==7-====&*  OO ayy XX. @    &&&&=*",
"==**==* uwww  ==== O++++  ====77===9=*=  ++++   XX.   wwwu %%%==",
"==**==% uwww w ==  O+++O< ===       **= <O+++O  X.  w wwwu %%&==",
"*=**=-& uuwwww =* O++++++  7  wwiii  =  +++++  X.   wwwwuu =*=&&",
"=***==& uuuwww =* O+++++++ 8 wwwwwii = +++++  X.  = wwwuuu *==&%",
"**77==7 uuuuuu == OO++++++   wwwwwii   +++++ ..  == uuuiuu ===99",
"*=7===         == O<+++   ww wwwwiii ii   +++   **=         =*99",
"==***= ,,,,,,:o = O++  wwwwww wwwii iwwiii  ++O ** o:,,,,,, *=7-",
"-=**== ,,,,,,:o * O+ wwwwwwww  wiii iwwwwiii +O && o:,,,,,, ==9=",
"88*=99 ,,,,,,:o *   wwwww  www wii iww  wwwii   ** o:,,,,,, **==",
"88**- ,,,,,,,:o ** wwwww   wqqqqqqqqqw   wwwiq 9=* o:,,,,,,, ===",
"&&==8 ,,,,,,,:o = qwwww    q         q    wwwqq == o:,,,,,,, =9-",
"&&==8 ,,,,,,,:o   qwww  wwq           qww  wqq   = o:,,,,,,, 9=9",
"-&-=% ,,::,,,:o    qwwwwwq             qwwwqq   ;  o:,,,::,, =9=",
"&==-& o:o::,,:o p   qqwwq    rrrrrrr    qqqq    >; o:,,::o:o =79",
"%$==&  , ,,,:o pt     qq    rrrrrrrrr    qq    rr>; o:,,, ,  =&&",
"%%=* ,,,,,,,:o ptr         rrrrrrrrrrr        rrr>; o:,,,,,,, &&",
"09== ,,,,,,:o ptrrrr     rrrrrrrrrrrrrrr    rrrrrr>; o:,,,,,, **",
"09== ,,,,,,:o ptrrrrrrrrrrrrrrrrrrrrrrrrrrrrrrrrrr>; o:,,,,,, ==",
"=9=* ,,,,,,:o ptrrrrrrrrrrrrrr      rrrrrrrrrrrrrr>: o:,,,,,, *=",
"99** ,,,,,:o ptrrrrrrrrrrrrr          rrrrrrrrrrrrr>; o:,,,,, ==",
"77*= ,,,,,:o ptrrrrrrrrrr;     6666     rrrrrrrrrrr>; o:,,,,, ==",
"77** ,,,,,:o ptrrrrrrrrrr;   55544666    rrrrrrrrrr>; o:,,,,, ==",
"==== ,,,,,:o ptrrrrrrrrr;   222211<456   rrrrrrrrrr>: o:,,,,, &&",
"==7= ,,,,,:o ptrrrrrrrrr;  112222211<45  rrrrrrrrrr>; o:,,,,, &&",
"*===7 ,,,,:o ptrrrrrrr>;   211112222143   rrrrrrrrr>; o:,,,, =*=",
"=%7== ,,,,:o ptrrrrrrr>;  2221<<<1222266  rrrrrrrrr>; o:,,,, ==&",
"7=**7 ,,,,:o ptrrrrrrr>;  222221<1<12266  rrrrrrrrr>: o:,,,, &==",
"==**=7 ,,,:o ptrrrrrrr>;  222222221<<166  rrrrrrrrr>: o:,,, &*=-",
"89=*=7 ,,,:o ptrrrrrrr>;  21111222222<36  rrrrrrrrr>: o:,,, =-==",
"89=*77* ,,:o ptrrrrrrr>;  222<<122222255  rrrrrrrrr>: o:,, ====-",
"8=====** ,:o ptrrrrrrr>;  22221<<<222266  rrrrrrrrr>: o:, =-====",
"-==*==%&= ,:o ptrrrrrr>;  2222221<<12266  rrrrrrrr>: o:, ====&==",
"7==9===877  o ptrrrrrr>;  11122222111<66  rrrrrrrr>; o  =&*==-=*",
"77-7==-=77&&  ptrrrrrrr>;  2<<112221254  rrrrrrrr>;   **&====-=*",
"=8==**%#&&77== ptrrrrrr>;  2221<<122266  rrrrrrrr>; =***-==-==*=",
"7===**##=&====* trrrrrr>;  2222221<1266  rrrrrrrr> *****=7===-=*",
"=***##====%#=-* ptrrrrr>;  121222221146  rrrrrrr>; =&=99==&**&-&",
"***7%#==*=%%-=== ptrrrr>;  211122222266  rrrrrr>; =9==--==&**&=&",
"=***==*=97&&=9*== pttrrr>;  1<11122266  rrrrrr>; =88*&==**&&-==-",
"%=%*====77%&9==*=* pptrr>;  2211<11166  rrrr>>; 7=09&&=*=*%&==-=",
"=*===777*==787==#%&  ptr>;  2222111<45  rr>>;; ===***=77=7&%-===",
"**==7=8====789==%%%&= pt>;  2222222266  >>;;  =%==**===77=&&=-==",
"%%==%#%$**88%%****===&  >;   <<121155   ;;  ====**7=====79=-&*&&",
"##=*#%$%*=88%%**&*=*==--  ;  11111245  ;  00-===**=7====99--==&&",
"*=&*%%=&&%&*90=-*=--==99**    211153    *&==00*===**778899&=--=-",
"=-&*%%**%%&*99-==*--=*99****  665566  ****-=00====*%=78899&&=-==",
"==**=***=%*===99**&&=*&&==**   6665   &&=-9=99%%*%==**==*7=%*===",
"=7*&==**%=*====9*&&&****==***        *%%===999%%%%==**==77%%**=7",
"7=**====%*%%=-==--=-=7*====7==      %&77##***=99**==8-*=#*77%#==",
"77**==8=&&%&9==&---=7==*==========**%&77%%=*==99**==-7=*%&78%#=="
};
