/* XPM */
static char *result[] = {
/* columns rows colors chars-per-pixel */
"64 64 12 1 ",
"  c #3F7100",
". c #406F01",
"X c #457501",
"o c #487601",
"O c #467901",
"+ c #4B7C03",
"@ c #4D7F09",
"# c #507F04",
"$ c #4E8105",
"% c #4E8308",
"& c #518206",
"* c #528409",
/* pixels */
"+++++OO+ooooOOoo+$+&++++oo$$++OX+O+O++OO#+&$$$$+++++++$+ O+#oooo",
"+$++OOOOoooo++oo$+&+++++o++$++OO++O+++oO##$$+$+++o+$+++$OO#+++o+",
"+++++#OOo#+ooooo%&++++++$&++OO$+&&&&ooO+**OO&&O+Oo**##+#$&O+++XX",
"++++&+Ooooo+oooo&#+++++$+$+$OOO+$$$&oo++&*OO#+++oo&&#@++$+++++XX",
"++o+**..OXXXo+**oo##O+OO++++++++&&..++++++Ooo+$++$OXOO+++$OX#&O+",
"#+oo%*.XO+OX++**o+#&+++O++$+++++@&..@@$++++o+o++%+XO+OOO++OO#+++",
"ooXXOo++**$+$$**+++++&+&++++O+++OOOoXX&$@+++O+o@+++O##XO+OOO&#$+",
"ooXXOO++&*+$+$%%++++@+$$+++oO+++XXOXXX$$+#++++oo+&++#+oX++XX#&&+",
"+$XO$$OO++++++O+XX+#++++#+$$++XO+$XO+++$&&oo++#&OO+++++#O++o++oX",
"++OX$&OO+O++++O+XX#++$++++$$++XX$$OX+o&&&&Xo+O##OO++++&+O+OO++Xo",
"+++$$+%*+$++#+$+XX++%$++++*&+$+##+++.X+O+++#Xo+#++++++O+++oO$$+$",
"OO$+$+**$+O++&+#XX##$$++++**++#++#++XXOOo+++oo##$++$++OOO+OO++$$",
"$+OO++OOOOOX+OoXO+++++oo++$+o+++&&++++oo#+oo+O++O++$#+oX+&ooOoO+",
"+$+O++OOOOXXO+XXOO++++oo+$+#+O+++#&++$oo++o++++#O++++#Xo&+ooOo+O",
"++OO++XX+OXX++++++oX++O++++++@$$++&+OO++XXoO&$++OO$$++++XOX.XX++",
"++OO+$OXO+XX#+#+++Xo++OO++++++$%+++&OO++XXoo+&++oO$$++++OOo.Xo++",
"O+OX++XX$+&%O++++o+o++&&+@&&+&$++#++$++++O+O#+$$OO++o+++##OO++oo",
"+oOO++XX++&&+++#Oo+O+O$#++@+&++$#++++%oo++OO++$#O++$+o++#*OO#+XX",
"oO$$++&$$++$&&++++OO+++$+@OOo+%+oX&&Oo++.o#+++oX+X++++OO##+$O+#*",
"++$+++$$$+$$$+++++OO$+$+$+O+++@@oo&&O+%+X.#+++oo+++++@OX#+++++&&",
"@+OOO++O%++X++OO+o+oOoOo$$$$$$$&XoOO+$++oX&$o+++XO++Oo+$@+OO++##",
"++Oo++++$$O+++OO++++OOOo$$%%+$$*OoOO$%o+XX$$o+ooOO+Oo+++@$XO+O&+",
"%%O+&#++OOXXOO XOO++++++XX++$$&+$+&#++O+$$Oo.o#&OO$+$+$$OO++OO++",
"&@OO&&+@$$ OOO  +OOO++++XXOO$%+#$###+@Oo+$++Xo&&O++$++%+@o++++++",
"oo++%+XX++$+XX**++++@+OO++oo+&O+OO+O+O$+XXOO  &$++OoXX++++++&+&&",
"oo++%%XX++$$X **++++&+oX++o@+++OOOoo+O+$XXO+  &&++XOXX++$+$++#&+",
"++#+XX++OO++$OO+#+&@$$+@++$$oo+++$O+  $+XXo+++++O+$++++++$$+++$$",
"+#o+XX$+OO++O$+$++#@&$&%+O$$oo+o$++o  $$XXoO+++++O+++$+++++$++$#",
".o++OO&&O++@O+%*#&++++++++O+Ooo+++$+++o+Oo$+$+OOO+XX++..OO.X++O+",
"X.++OO&&+o+++O%%&#$++++@@+OO@++o+++$++oooo++++O+++XXo+.X+O.X++oo",
"&&+++&o+oO&$%%+O+++$OOOoXXXO+#O+++++++$$+++++OXX++OO++o+++OX#+o+",
"&*++@+o+oO$$%%+O++$+OO++XXoo++++++++++$$O+++++XX$@OOo++++#Xo+#Oo",
"$$OOo+OO$$oo&++$$+$+$$+#@#++OOooXX&+OO+$&+#o#+o#o+++++oX##+#++++",
"$$@++oO+$%+o+$+++++@++$+#&##+oo+XX$&OO+++$++++#o#+o++#XX####++++",
"$$+o++++##oXOX++XXoo+++Oo+++##++&$++++OOXO$$oo#o+++o+++&++++++++",
"$$oo++++#&oX.X@+XXoo++O+++++##++$&+$++O+OO%$o+##o+o+++#++@#+++++",
"++O$XX+$O+**o+O+@+@@$+%+++o+#+Oo%+oo#+##$+O++O++oo+O&+&$$$++##oX",
"++OOOX$+++*%oOOOo+@@+++$++oO+++++@o@#+##+++O++$+ooOO+&$$$%++#+oo",
"+X$$+$oOOO$%XX+O++##$$OX##o+O+XX+#oo&&#+$$$+++O+++&&O+++$$+$++Oo",
"++++++XOOO$$XX+O++#@++XX##OO+OXX#+oo&&++$$+++++O+O&&OO$$$$$%+%oo",
"+$O++$OO+$++OOoX#+#++##+XX%*$$+#++OO&&++&$OOOo++OO+o@@&@$$$+OO++",
"++OO$+OO$$++OOXX+++++++#XX**&&#+++OO&*+#$$OOOO+++oo+@@&@$+$$XO#+",
"%&+O+&+O+OO+O+O++XXX+#++ X+$OOO+**++&+++o+++OOOOO+@@##@o$$+O+#++",
"%%OO$++++++++O++ooXX++O+X $+oO+O**+++$$$+O+$XOOXo+&@##++$$++++++",
"$+++++OX$+O+oo#&++$$++OO+O&%++#&+++$OO++OO#+&$oX+&OO++o#o++#++++",
"@++O++XO+++Ooo&&$$++++O+++&$+O#+oO++OO$+O+++$%oo#+OO++oo++#+++++",
"$$##+++&$$oo&&O+**OO++OO++$$*&*&+O*&OO#+OX+O$$X.&&&&+#+oo++o+@+o",
"$++#++@@$$oo&*++*%oo++O+++$$&$&*O+&&OO+#OX++$+..&&&&#+oo+o++@++O",
"+$++OO  o+&$O+OO+++$*&$%&$+++@%&+#**+++O+OO++OO$+$O+OOOO+&+++++o",
"$+++OO  o+++++OOo+++&*$&$&+#$+*$+#*&++oOOO+++O$O++++ooOO++++@+++",
"OOO+X +++OXX+#O+o+$%OoOOOoooXX+O##*&++++XXXX%$+++O$+++&#++oooo+o",
"+O$O  ++O+X.#++++o&$OOO+OOOoX O@##**+$++XXXX$$++O++$++$#++O+oo++",
"O+XO+++O&&XX++++++$+OO+O%++$XXOO#O++++++XX++OX@+++%%XX++OOoo++#+",
"+XOX++++$&XX##++O+$$+O+++&+$X+OO+o++#+++XX$&XX+++$%%Xo+++OXo+++#",
"O++++$$++O+$%$++X XX#++OOoOO$$++OX+++++$++oo++OO++OO++$$+$XX+#++",
"OO++$+$$++$+%$++XXXX#&+OO+O+$+$$Xo+&+O++++oo++OX++O+++$+$+Xo++&+",
"X ++  .XOO%%XXOoOO+++o#+++&++#XXO+$+&&XX+&**&+++OO&+++++&*#+++oo",
" X+OXXX.O+@&XX+oOOO+++##OO+&#+XXOO+$&&XX$#**++++OO++++++*###++oo",
"++OoXXo+XXX+**++++##O+&&OOO+##++&&+#oooXOO++*&++++OO$+%$&&+o##++",
"#+XXXX+OXXOO**#+oO##++&&OOOO$#+#&&++ooOOOO++&*++++XO$$%%*&oo++++",
"++OO++OOX+++++&&Oooo+OOo++OOOOoO+o++OooX++&&*&XXOX++OO++O$+Xo+++",
"++oOO+OO+X++++#$OoooOOoo++OOOOOO+++++oOX++$+&&XXXX++OO++$$XXoo+$",
"$+OO#+$+XXXX+&O+##+#$+O+++#+++++++oOoX$+ XOO++&&OO++#&+O X$$X ++",
"$$OO++++XXXX$+o+###+$+O+++++OO+++@+OXX$&XXOO++&&oO++@$O+XO$$X ++"
};
