/* XPM */
static char *result[] = {
/* columns rows colors chars-per-pixel */
"64 64 34 1 ",
"  c #271C00",
". c #2B1E00",
"X c #1F3600",
"o c #2E2000",
"O c #302100",
"+ c #233D00",
"@ c #4E3500",
"# c #513700",
"$ c #553A00",
"% c #5A3E00",
"& c #264300",
"* c #2A4600",
"= c #2C4B01",
"- c #324F00",
"; c #2E5100",
": c #335501",
"> c #355903",
", c #385B05",
"< c #3D6400",
"1 c #5D4000",
"2 c #614300",
"3 c #674800",
"4 c #684900",
"5 c #416E02",
"6 c #457501",
"7 c #487601",
"8 c #477901",
"9 c #4B7C03",
"0 c #507F04",
"q c #4E8105",
"w c #4E8108",
"e c #518306",
"r c #528409",
"t c None",
/* pixels */
"9999898777779966qq999989999999869998998809eqqq99999998wq<q9e8799",
"9q998889777799789qqq999989qq9q68898999880eqqe9q9999999q988999779",
"09999e8877777777qr889909ee9988q8eeee8789ee88099977rr0009q9997966",
"7999908870797777ee97999q9e99888qqqqe9797rr889e9977er0099qq989966",
"9978rr55986899rr77erq88899999989ww6<9099897889999q688899q9880999",
"9999wr56788699,<-7r0889899**:::9w0660099998898009q67788799880e99",
"77768899rr90>*>>::<*>>qq:::*::::;6;:66ww0070::7:>98:>>:69886009q",
"7766889905**>>>>::::>>>>::::::::;;:;=;>w>>::+*:*>>****-:::66eee9",
"9q68qq8<***::::>>>+XX>>:::+=&X+:>=;;;:>>>,:;:*==:=::::>,:::68976",
"9988qq8&::**:&+==&=:==X;+ooo&&..;=*&=&>>>>:::;>>;:::.o:+:::89976",
"99q999r=***=X=+. ;==;;ooOOooOOOOoO+.o=  ;=o.o&oo3.o*:oOOo:;8q9qq",
"989q9qr=*>7:;o&ooo=&&:ooO$11OO$%oO.@@oooo>o$o:o3432oo$OOO@&:9qqq",
"9q88908*::%-ooo$43.o*O$44444$4444$o##o#11=$44O13$14OO$$443&-8888",
"q988998*;:%Oo1O$13oO&O$3$$$$22%###$#$$1#%o3%44444444$%$$$4*::699",
"998899;&:3%O$1$4444$o$$%%%1%$$$%$#11##111o43411444$4$21%23;&-699",
"998899&;;%%%$$$44112O$223121%%%444421441$11141243344%221%%1=-699",
"998899:=:21%%%$$$$$%22444444444444444%42t444433431%1121$111::977",
"998899=::%111t11232334t444444444tttttttttttttt4434443tt11111*976",
"889q99>>>%1ttttt%1ttttttttttttttttttttttttttttttttttttttt111::0e",
"89q99:>>=tttttttttttttttttttttttttttttttttttttttttttttttttt1::ee",
"99889::**ttttttttttttttttttttttttttttttttttttttttttttttttttt::90",
"998999:*tttttttttttttttttttttttttttttttttttttttttttttttttttt<:q0",
"ww88e0:>ttttttttttttttttttttttttttttttttttttttttttttttttttt:::99",
"wr8800>:ttttttttttttttttttttttttttttttttttttttttttttttttttt*::99",
"9799w>;;tttttttttttttttttttttttttttttttttttttttttttttttttt**:09r",
"7799w>;;tttttttttttttttttttttttttttttttttttttttttttttttttt=:>0e9",
"97006=*:tttttttttttttttttttttttttttttttttttttttttttttttttt*>:9e9",
"90977;*:tttttttttttttttttttttttttttttttttttttttttttttttttt>::9qe",
"569788=,tttttttttttttttttttttttttttttttttttttttttttttttttt==:987",
"659988=*:ttttttttttttttttttttttttttttttttttttttttttttttttt;=9977",
"re99wq:**ttttttttttttttttttttttttttttttttttttttttttttttttt:;9098",
"rr999q9:&:ttttttttttttttttttttttttttttttttttttttttttttttt*=-0999",
"qq98968:=>ttttttttttttttttttttttttttttttttttttttttttttttt=:::070",
"qw77799;=>ttttttttttttttttttttttttttttttttttttttttttttttt*,::099",
"qq79999>*:ttttttttttttttttttttttttttttttttttttttttttttttt=*::979",
"qq97999>>>tttttttttttttttttttttttttttttttttttttttttttttttt*:9999",
"8q88689:::,ttttttttttttttttttttttttttttttttttttttttttttttt*:e977",
"q88q66q:::=ttttttttttttttttttttttttttttttttttttttttttttttt*:0067",
"98q99w66-*=ttttttttttttttttttttttttttttttttttttttttttttttt*>9989",
"889q9967:*>ttttttttttttttttttttttttttttttttttttttttttttttt>>9999",
"q988q988=*tttttttttttttttttttttttttttttttttttttttttttttttt>>7799",
"q9889q98**tttttttttttttttttttttttttttttttttttttttttttttttt>>:699",
"ee899e8:&=tttttttttttttttttttttttttttttttttttttttttttttttt:;,999",
"ee88q99::*tttttttttttttttttttttttttttttttttttttttttttttttt:::099",
"9w98998::ttttttttttttttttttttttttttttttttttttttttttttttttt:::709",
"w999996&>ttttttttttttttttttttttttttttttttttttttttttttttttt:::7q9",
"qq0099=*>ttttttttttttttttttttttttttttttttttttttttttttttttt::>088",
"8q9090**>ttttttttttttttttttttttttttttttttttttttttttttttttt::0998",
"q9q888++;tttttttttttttttttttttttttttttttttttttttttttttttt>:90999",
"q98qqq;+;>tttttttttttttttttttttttttttttttttttttttttttttt**:99979",
"898q8<9==;tttttttttttttttttttttttttttttttttttttttttttt>-*::77797",
"8888<<9:=;;ttttttttttttttttttttttttttttttttttttttttttt>*:::77779",
"9968999:,*+*ttttttttttttttttttttttt*****&*>ttttttttt*&*::8679999",
"988809;;*,*&=tttt:>****&:==&&&*::***>::>:=>>;ttttt==&-:::8779w09",
"889999wq**:=>>::;;=;:::**&::>>*:=-=*:-:>:&*-:::;>:::::>09q68999q",
"88999qqq9:9>>>::;=:6qq:::-:;9>>>:::>99999::&*>;:::78899qq9660099",
"<88q<85689ww;=***7898900989q9066889qee66qqr<**:;889qq88qee909977",
"8<8q8<6679w066998798990098rq905788e9ee669qrr999988q98q880e009777",
"qq<q8<776579er9999e099ee6898ee07ee9087678899rr899986qqqqee779099",
"qqqq<q986688er99880089ee8888qq99ee9977768899rr999988qqqqer79w009",
"qq<q898888q899ee877799779988696899997786q8qqee66669988qqqqqq8899",
"8q<8998888899ee9877688889988798899998768qqqqer66669988q8qq<<889q",
"qqq80999676699890009999899998899999776e9<88899ee8899ww888<qq<899",
"qq8899097666e09700009q88999e9999998866qe8<9999eq8899qqq88qqqq<99"
};
